<svg xmlns="http://www.w3.org/2000/svg" width="22.313" height="25.5" viewBox="0 0 22.313 25.5">
  <path id="calendar-alt-regular" d="M7.371,14.344H5.379a.6.6,0,0,1-.6-.6V11.754a.6.6,0,0,1,.6-.6H7.371a.6.6,0,0,1,.6.6v1.992A.6.6,0,0,1,7.371,14.344Zm5.379-.6V11.754a.6.6,0,0,0-.6-.6H10.16a.6.6,0,0,0-.6.6v1.992a.6.6,0,0,0,.6.6h1.992A.6.6,0,0,0,12.75,13.746Zm4.781,0V11.754a.6.6,0,0,0-.6-.6H14.941a.6.6,0,0,0-.6.6v1.992a.6.6,0,0,0,.6.6h1.992A.6.6,0,0,0,17.531,13.746ZM12.75,18.527V16.535a.6.6,0,0,0-.6-.6H10.16a.6.6,0,0,0-.6.6v1.992a.6.6,0,0,0,.6.6h1.992A.6.6,0,0,0,12.75,18.527Zm-4.781,0V16.535a.6.6,0,0,0-.6-.6H5.379a.6.6,0,0,0-.6.6v1.992a.6.6,0,0,0,.6.6H7.371A.6.6,0,0,0,7.969,18.527Zm9.563,0V16.535a.6.6,0,0,0-.6-.6H14.941a.6.6,0,0,0-.6.6v1.992a.6.6,0,0,0,.6.6h1.992A.6.6,0,0,0,17.531,18.527ZM22.313,5.578V23.109A2.391,2.391,0,0,1,19.922,25.5H2.391A2.391,2.391,0,0,1,0,23.109V5.578A2.391,2.391,0,0,1,2.391,3.188H4.781V.6a.6.6,0,0,1,.6-.6H7.371a.6.6,0,0,1,.6.6v2.59h6.375V.6a.6.6,0,0,1,.6-.6h1.992a.6.6,0,0,1,.6.6v2.59h2.391A2.391,2.391,0,0,1,22.313,5.578ZM19.922,22.811V7.969H2.391V22.811a.3.3,0,0,0,.3.3H19.623A.3.3,0,0,0,19.922,22.811Z" fill="#174a84"/>
</svg>
