<svg id="enterprise" xmlns="http://www.w3.org/2000/svg" width="21.293" height="21.293" viewBox="0 0 21.293 21.293">
  <g id="Group_2834" data-name="Group 2834" transform="translate(7.324 7.324)">
    <g id="Group_2833" data-name="Group 2833" transform="translate(0 0)">
      <rect id="Rectangle_267" data-name="Rectangle 267" width="2" transform="translate(-0.324 -0.324)" fill="none"/>
    </g>
  </g>
  <g id="Group_2836" data-name="Group 2836" transform="translate(7.324 6.545)">
    <g id="Group_2835" data-name="Group 2835" transform="translate(0 0)">
      <rect id="Rectangle_268" data-name="Rectangle 268" width="2" height="1" transform="translate(-0.324 0.455)" fill="#fff"/>
    </g>
  </g>
  <g id="Group_2838" data-name="Group 2838" transform="translate(7.324 8.766)">
    <g id="Group_2837" data-name="Group 2837" transform="translate(0 0)">
      <rect id="Rectangle_269" data-name="Rectangle 269" width="2" height="1" transform="translate(-0.324 0.234)" fill="#fff"/>
    </g>
  </g>
  <g id="Group_2840" data-name="Group 2840" transform="translate(7.324 10.987)">
    <g id="Group_2839" data-name="Group 2839" transform="translate(0 0)">
      <rect id="Rectangle_270" data-name="Rectangle 270" width="2" height="1" transform="translate(-0.324 0.013)" fill="#fff"/>
    </g>
  </g>
  <g id="Group_2842" data-name="Group 2842" transform="translate(8.545 7.324)">
    <g id="Group_2841" data-name="Group 2841" transform="translate(0 0)">
      <rect id="Rectangle_271" data-name="Rectangle 271" width="1" transform="translate(0.455 -0.324)" fill="#fff"/>
    </g>
  </g>
  <g id="Group_2844" data-name="Group 2844" transform="translate(9.545 6.545)">
    <g id="Group_2843" data-name="Group 2843" transform="translate(0 0)">
      <rect id="Rectangle_272" data-name="Rectangle 272" width="1" height="1" transform="translate(0.455 0.455)" fill="#fff"/>
    </g>
  </g>
  <g id="Group_2846" data-name="Group 2846" transform="translate(9.545 8.766)">
    <g id="Group_2845" data-name="Group 2845" transform="translate(0 0)">
      <rect id="Rectangle_273" data-name="Rectangle 273" width="1" height="1" transform="translate(0.455 0.234)" fill="#fff"/>
    </g>
  </g>
  <g id="Group_2848" data-name="Group 2848" transform="translate(9.545 10.987)">
    <g id="Group_2847" data-name="Group 2847" transform="translate(0 0)">
      <rect id="Rectangle_274" data-name="Rectangle 274" width="1" height="1" transform="translate(0.455 0.013)" fill="#fff"/>
    </g>
  </g>
  <g id="Group_2850" data-name="Group 2850" transform="translate(9.766 7.324)">
    <g id="Group_2849" data-name="Group 2849" transform="translate(0 0)">
      <rect id="Rectangle_275" data-name="Rectangle 275" width="1" transform="translate(0.234 -0.324)" fill="#fff"/>
    </g>
  </g>
  <g id="Group_2852" data-name="Group 2852" transform="translate(11.766 6.545)">
    <g id="Group_2851" data-name="Group 2851" transform="translate(0 0)">
      <rect id="Rectangle_276" data-name="Rectangle 276" width="1" height="1" transform="translate(0.234 0.455)" fill="#fff"/>
    </g>
  </g>
  <g id="Group_2854" data-name="Group 2854" transform="translate(11.766 8.766)">
    <g id="Group_2853" data-name="Group 2853" transform="translate(0 0)">
      <rect id="Rectangle_277" data-name="Rectangle 277" width="1" height="1" transform="translate(0.234 0.234)" fill="#fff"/>
    </g>
  </g>
  <g id="Group_2856" data-name="Group 2856" transform="translate(11.766 10.987)">
    <g id="Group_2855" data-name="Group 2855" transform="translate(0 0)">
      <rect id="Rectangle_278" data-name="Rectangle 278" width="1" height="1" transform="translate(0.234 0.013)" fill="#fff"/>
    </g>
  </g>
  <g id="Group_2858" data-name="Group 2858" transform="translate(12.207 7.324)">
    <g id="Group_2857" data-name="Group 2857" transform="translate(0 0)">
      <rect id="Rectangle_279" data-name="Rectangle 279" transform="translate(-0.207 -0.324)" fill="#fff"/>
    </g>
  </g>
  <g id="Group_2860" data-name="Group 2860" transform="translate(8.545 6.104)">
    <g id="Group_2859" data-name="Group 2859" transform="translate(0 0)">
      <rect id="Rectangle_280" data-name="Rectangle 280" width="1" transform="translate(0.455 -0.104)" fill="#fff"/>
    </g>
  </g>
  <g id="Group_2862" data-name="Group 2862" transform="translate(9.766 6.104)">
    <g id="Group_2861" data-name="Group 2861" transform="translate(0 0)">
      <rect id="Rectangle_281" data-name="Rectangle 281" width="1" transform="translate(0.234 -0.104)" fill="#fff"/>
    </g>
  </g>
  <g id="Group_2864" data-name="Group 2864" transform="translate(12.207 6.104)">
    <g id="Group_2863" data-name="Group 2863" transform="translate(0 0)">
      <rect id="Rectangle_282" data-name="Rectangle 282" transform="translate(-0.207 -0.104)" fill="#fff"/>
    </g>
  </g>
  <g id="Group_2866" data-name="Group 2866" transform="translate(12.207 8.545)">
    <g id="Group_2865" data-name="Group 2865" transform="translate(0 0)">
      <rect id="Rectangle_283" data-name="Rectangle 283" height="1" transform="translate(-0.207 0.455)" fill="#fff"/>
    </g>
  </g>
  <g id="Group_2868" data-name="Group 2868" transform="translate(12.207 9.766)">
    <g id="Group_2867" data-name="Group 2867" transform="translate(0 0)">
      <rect id="Rectangle_284" data-name="Rectangle 284" height="1" transform="translate(-0.207 0.234)" fill="#fff"/>
    </g>
  </g>
  <g id="Group_2870" data-name="Group 2870" transform="translate(12.207 10.987)">
    <g id="Group_2869" data-name="Group 2869" transform="translate(0 0)">
      <rect id="Rectangle_285" data-name="Rectangle 285" height="1" transform="translate(-0.207 0.013)" fill="#fff"/>
    </g>
  </g>
  <g id="Group_2872" data-name="Group 2872" transform="translate(13.428 7.324)">
    <g id="Group_2871" data-name="Group 2871" transform="translate(0 0)">
      <rect id="Rectangle_286" data-name="Rectangle 286" transform="translate(-0.428 -0.324)" fill="#fff"/>
    </g>
  </g>
  <g id="Group_2874" data-name="Group 2874" transform="translate(13.428 8.545)">
    <g id="Group_2873" data-name="Group 2873" transform="translate(0 0)">
      <rect id="Rectangle_287" data-name="Rectangle 287" height="1" transform="translate(-0.428 0.455)" fill="#fff"/>
    </g>
  </g>
  <g id="Group_2876" data-name="Group 2876" transform="translate(13.428 9.766)">
    <g id="Group_2875" data-name="Group 2875" transform="translate(0 0)">
      <rect id="Rectangle_288" data-name="Rectangle 288" height="1" transform="translate(-0.428 0.234)" fill="#fff"/>
    </g>
  </g>
  <g id="Group_2878" data-name="Group 2878" transform="translate(13.428 10.987)">
    <g id="Group_2877" data-name="Group 2877" transform="translate(0 0)">
      <rect id="Rectangle_289" data-name="Rectangle 289" height="1" transform="translate(-0.428 0.013)" fill="#fff"/>
    </g>
  </g>
  <g id="Group_2880" data-name="Group 2880" transform="translate(0 0)">
    <g id="Group_2879" data-name="Group 2879" transform="translate(0 0)">
      <path id="Path_11449" data-name="Path 11449" d="M20.938,5.323H15.615V.355A.355.355,0,0,0,15.26,0H6.033a.355.355,0,0,0-.355.354h0V5.323H.355A.355.355,0,0,0,0,5.678H0V18.454a.355.355,0,0,0,.354.355H1.1a2.13,2.13,0,0,0-.032.355v1.774a.355.355,0,0,0,.354.355H19.873a.355.355,0,0,0,.355-.354h0V19.163a2.12,2.12,0,0,0-.032-.355h.742a.355.355,0,0,0,.355-.354h0V5.678A.355.355,0,0,0,20.938,5.323ZM15.26,15.26a.71.71,0,1,1-.71-.71A.71.71,0,0,1,15.26,15.26Zm-8.517-.71a.71.71,0,1,1-.71.71A.71.71,0,0,1,6.743,14.55ZM4.613,20.583H1.774v-1.42a1.42,1.42,0,1,1,2.839,0ZM2.484,16.324a.71.71,0,1,1,.71.71A.71.71,0,0,1,2.484,16.324ZM4.667,17.63a2.139,2.139,0,0,0-.446-.33,1.42,1.42,0,1,0-2.054,0,2.143,2.143,0,0,0-.814.8H.71V6.033H5.678v8.3a1.4,1.4,0,0,0,.038,1.9A2.135,2.135,0,0,0,4.667,17.63Zm3.495,2.953H5.323V18.1a1.42,1.42,0,0,1,2.839,0Zm4.259,0H8.872V18.1a1.774,1.774,0,1,1,3.549,0ZM9.582,14.55a1.065,1.065,0,1,1,1.065,1.065A1.065,1.065,0,0,1,9.582,14.55Zm3.226,2.329a2.5,2.5,0,0,0-1.018-.983,1.774,1.774,0,1,0-2.286,0,2.5,2.5,0,0,0-1.018.983,2.143,2.143,0,0,0-.716-.644,1.409,1.409,0,0,0-1.382-2.344V.71H14.9V13.891a1.413,1.413,0,0,0-1.382,2.344A2.143,2.143,0,0,0,12.808,16.879Zm3.162,2.285v1.42H13.13V18.1a1.42,1.42,0,0,1,2.839,0Zm3.549,1.42H16.679v-1.42a1.42,1.42,0,1,1,2.839,0Zm-2.129-4.259a.71.71,0,1,1,.71.71A.71.71,0,0,1,17.389,16.324ZM20.583,18.1H19.94a2.143,2.143,0,0,0-.814-.8,1.42,1.42,0,1,0-2.054,0,2.138,2.138,0,0,0-.446.33,2.135,2.135,0,0,0-1.049-1.4,1.4,1.4,0,0,0,.038-1.9v-8.3h4.968V18.1Z" transform="translate(0 0)" fill="#fff"/>
    </g>
  </g>
  <g id="Group_2882" data-name="Group 2882" transform="translate(17.09 8.545)">
    <g id="Group_2881" data-name="Group 2881" transform="translate(0 0)">
      <rect id="Rectangle_290" data-name="Rectangle 290" height="4" transform="translate(-0.09 0.455)" fill="#fff"/>
    </g>
  </g>
  <g id="Group_2884" data-name="Group 2884" transform="translate(18.311 8.545)">
    <g id="Group_2883" data-name="Group 2883" transform="translate(-1 -1)">
      <rect id="Rectangle_291" data-name="Rectangle 291" width="2" height="4" transform="translate(-0.311 0.455)" fill="#fff"/>
    </g>
  </g>
  <g id="Group_2886" data-name="Group 2886" transform="translate(2.221 7.545)">
    <g id="Group_2885" data-name="Group 2885" transform="translate(0 0)">
      <rect id="Rectangle_292" data-name="Rectangle 292" width="1" height="4" transform="translate(-0.221 0.455)" fill="#fff"/>
    </g>
  </g>
  <g id="Group_2888" data-name="Group 2888" transform="translate(2.662 7.545)">
    <g id="Group_2887" data-name="Group 2887" transform="translate(0 0)">
      <rect id="Rectangle_293" data-name="Rectangle 293" width="1" height="4" transform="translate(0.338 0.455)" fill="#fff"/>
    </g>
  </g>
  <g id="Group_2890" data-name="Group 2890" transform="translate(8.162 1.419)">
    <g id="Group_2889" data-name="Group 2889">
      <path id="Path_11450" data-name="Path 11450" d="M188.614,32h-4.259a.355.355,0,0,0-.355.354h0v2.839a.355.355,0,0,0,.354.355h4.259a.355.355,0,0,0,.355-.354h0V32.355A.355.355,0,0,0,188.614,32Zm-.355,2.839H184.71V32.71h3.549Z" transform="translate(-184 -32)" fill="#fff"/>
    </g>
  </g>
</svg>
