<svg xmlns="http://www.w3.org/2000/svg" width="21.292" height="21.293" viewBox="0 0 21.292 21.293">
  <path id="Path_11417" data-name="Path 11417" d="M21.182,8.81a.437.437,0,0,0-.291-.173l-2.537-.388a8.353,8.353,0,0,0-.568-1.359q.249-.347.748-.977t.707-.922a.534.534,0,0,0,.111-.319.446.446,0,0,0-.1-.3A18.942,18.942,0,0,0,16.967,2.01a.535.535,0,0,0-.346-.139A.45.45,0,0,0,16.288,2L14.32,3.479a8.568,8.568,0,0,0-1.248-.513L12.684.416a.411.411,0,0,0-.16-.3A.523.523,0,0,0,12.185,0H9.108a.466.466,0,0,0-.5.388,22.636,22.636,0,0,0-.4,2.578,7.932,7.932,0,0,0-1.261.527L5.032,2.01a.59.59,0,0,0-.36-.139q-.3,0-1.31.991A13.813,13.813,0,0,0,2,4.353a.584.584,0,0,0-.125.319A.52.52,0,0,0,2.01,5q.929,1.123,1.483,1.913a6.836,6.836,0,0,0-.541,1.275L.374,8.581a.418.418,0,0,0-.263.18A.533.533,0,0,0,0,9.08v3.078a.523.523,0,0,0,.111.326.437.437,0,0,0,.291.173l2.537.374A6.847,6.847,0,0,0,3.507,14.4q-.249.347-.748.977t-.707.922a.535.535,0,0,0-.111.319.542.542,0,0,0,.1.319,18.266,18.266,0,0,0,2.287,2.329.478.478,0,0,0,.347.152.5.5,0,0,0,.347-.124l1.955-1.483a8.6,8.6,0,0,0,1.248.513l.388,2.551a.412.412,0,0,0,.159.3.522.522,0,0,0,.34.118h3.077a.467.467,0,0,0,.5-.388,22.713,22.713,0,0,0,.4-2.578,7.916,7.916,0,0,0,1.261-.527l1.913,1.5a.677.677,0,0,0,.36.124q.3,0,1.3-.984a13.994,13.994,0,0,0,1.372-1.5.463.463,0,0,0,.125-.319.533.533,0,0,0-.139-.347q-1-1.22-1.483-1.913A8.887,8.887,0,0,0,18.34,13.1l2.565-.388a.423.423,0,0,0,.277-.18.535.535,0,0,0,.111-.319V9.135A.521.521,0,0,0,21.182,8.81Zm-8.026,4.346a3.418,3.418,0,0,1-2.509,1.04A3.55,3.55,0,0,1,7.1,10.646,3.549,3.549,0,0,1,10.647,7.1,3.55,3.55,0,0,1,14.2,10.646,3.418,3.418,0,0,1,13.156,13.155Z" fill="#fff"/>
</svg>
